<?xml version="1.0" encoding="utf-8"?><svg xmlns="http://www.w3.org/2000/svg" xmlns:xlink="http://www.w3.org/1999/xlink" width="1920" height="2000" preserveAspectRatio="xMidYMid" viewBox="0 0 1920 2000" style="z-index:1;margin-right:-2px;display:block;background-repeat-y:initial;background-repeat-x:initial;background-color:rgb(0, 0, 0);animation-play-state:paused" ><g transform="translate(960,1000) scale(1,1) translate(-960,-1000)" style="transform:matrix(1, 0, 0, 1, 0, 0);animation-play-state:paused" ><defs style="animation-play-state:paused" ><filter id="blur-r8gdlr9lz1h-1" x="-1" y="-1" width="3" height="3" style="animation-play-state:paused" ><feGaussianBlur stdDeviation="3" style="animation-play-state:paused" ></feGaussianBlur></filter>
<filter id="blur-r8gdlr9lz1h-2" x="-1" y="-1" width="3" height="3" style="animation-play-state:paused" ><feGaussianBlur stdDeviation="1.5" style="animation-play-state:paused" ></feGaussianBlur></filter>
<filter id="blur-r8gdlr9lz1h-3" x="-1" y="-1" width="3" height="3" style="animation-play-state:paused" ><feGaussianBlur stdDeviation="1" style="animation-play-state:paused" ></feGaussianBlur></filter></defs>
<circle cx="377.37388127666054" cy="0" transform="matrix(1,0,0,1,0,306.607177734375)" r="1.1692885195243756" fill="#dfdfdf" opacity="0.36000000000000004" style="transform:matrix(1, 0, 0, 1, 0, 306.607);opacity:0.36;animation-play-state:paused" ></circle>
<circle cx="1004.687435192087" cy="0" transform="matrix(1,0,0,1,0,1587.1279296875)" r="2.9925731628950945" fill="#e7e7e7" opacity="0.63" style="transform:matrix(1, 0, 0, 1, 0, 1587.13);opacity:0.63;animation-play-state:paused" ></circle>
<circle cx="711.1023620787681" cy="0" transform="matrix(1,0,0,1,0,1965.7064208984375)" r="2.8851088065568002" fill="#dfdfdf" opacity="0.63" style="transform:matrix(1, 0, 0, 1, 0, 1965.71);opacity:0.63;animation-play-state:paused" ></circle>
<circle cx="111.53709600237576" cy="0" transform="matrix(1,0,0,1,0,1124.7001953125)" r="1.026742244123803" fill="#e7e7e7" opacity="0.36000000000000004" style="transform:matrix(1, 0, 0, 1, 0, 1124.7);opacity:0.36;animation-play-state:paused" ></circle>
<circle cx="1206.6765250448195" cy="0" transform="matrix(1,0,0,1,0,1482.4713134765625)" r="3.645523754742334" fill="#e7e7e7" opacity="0.7200000000000001" style="transform:matrix(1, 0, 0, 1, 0, 1482.47);opacity:0.72;animation-play-state:paused" ></circle>
<circle cx="592.5790926658239" cy="0" transform="matrix(1,0,0,1,0,259.456787109375)" r="2.6640126132501116" fill="#e7e7e7" opacity="0.63" style="transform:matrix(1, 0, 0, 1, 0, 259.457);opacity:0.63;animation-play-state:paused" ></circle>
<circle cx="932.7950834031399" cy="0" transform="matrix(1,0,0,1,0,1129.755615234375)" r="2.151697275129041" fill="#dfdfdf" opacity="0.63" style="transform:matrix(1, 0, 0, 1, 0, 1129.76);opacity:0.63;animation-play-state:paused" ></circle>
<circle cx="552.8899562682834" cy="0" transform="matrix(1,0,0,1,0,870.3548583984375)" r="3.644560952496686" fill="#dfdfdf" opacity="0.7200000000000001" style="transform:matrix(1, 0, 0, 1, 0, 870.355);opacity:0.72;animation-play-state:paused" ></circle>
<circle cx="1178.13146491865" cy="0" transform="matrix(1,0,0,1,0,417.6805419921875)" r="3.163643748426924" fill="#e7e7e7" opacity="0.7200000000000001" style="transform:matrix(1, 0, 0, 1, 0, 417.681);opacity:0.72;animation-play-state:paused" ></circle>
<circle cx="725.4695985456917" cy="0" transform="matrix(1,0,0,1,0,820.8551025390625)" r="1.2955981505913983" fill="#ffffff" opacity="0.36000000000000004" style="transform:matrix(1, 0, 0, 1, 0, 820.855);opacity:0.36;animation-play-state:paused" ></circle>
<circle cx="1498.917327215601" cy="0" transform="matrix(1,0,0,1,0,909.3245849609375)" r="1.5091186126901601" fill="#e7e7e7" opacity="0.36000000000000004" style="transform:matrix(1, 0, 0, 1, 0, 909.325);opacity:0.36;animation-play-state:paused" ></circle>
<circle cx="1100.5720704145115" cy="0" transform="matrix(1,0,0,1,0,10.9844970703125)" r="3.298294792421279" fill="#e7e7e7" opacity="0.7200000000000001" style="transform:matrix(1, 0, 0, 1, 0, 10.9845);opacity:0.72;animation-play-state:paused" ></circle>
<circle cx="421.8336350907191" cy="0" transform="matrix(1,0,0,1,0,1046.064697265625)" r="3.042350595265445" fill="#e7e7e7" opacity="0.7200000000000001" style="transform:matrix(1, 0, 0, 1, 0, 1046.06);opacity:0.72;animation-play-state:paused" ></circle>
<circle cx="686.1713576812692" cy="0" transform="matrix(1,0,0,1,0,366.8350830078125)" r="1.5483312389667583" fill="#dfdfdf" opacity="0.36000000000000004" style="transform:matrix(1, 0, 0, 1, 0, 366.835);opacity:0.36;animation-play-state:paused" ></circle>
<circle cx="1800.5031662696285" cy="0" transform="matrix(1,0,0,1,0,658.5120849609375)" r="2.0173080620300934" fill="#e7e7e7" opacity="0.63" style="transform:matrix(1, 0, 0, 1, 0, 658.512);opacity:0.63;animation-play-state:paused" ></circle>
<circle cx="969.1074356484006" cy="0" transform="matrix(1,0,0,1,0,445.37109375)" r="1.995689416864184" fill="#ffffff" opacity="0.36000000000000004" style="transform:matrix(1, 0, 0, 1, 0, 445.371);opacity:0.36;animation-play-state:paused" ></circle>
<circle cx="1492.9984842051792" cy="0" transform="matrix(1,0,0,1,0,282.436767578125)" r="2.085174498488985" fill="#ffffff" opacity="0.63" style="transform:matrix(1, 0, 0, 1, 0, 282.437);opacity:0.63;animation-play-state:paused" ></circle>
<circle cx="1901.6235279683938" cy="0" transform="matrix(1,0,0,1,0,1823.7410888671875)" r="1.564815199685642" fill="#ffffff" opacity="0.36000000000000004" style="transform:matrix(1, 0, 0, 1, 0, 1823.74);opacity:0.36;animation-play-state:paused" ></circle>
<circle cx="1016.6503873313677" cy="0" transform="matrix(1,0,0,1,0,555.42041015625)" r="2.2172185001898352" fill="#ffffff" opacity="0.63" style="transform:matrix(1, 0, 0, 1, 0, 555.42);opacity:0.63;animation-play-state:paused" ></circle>
<circle cx="1509.5661597441876" cy="0" transform="matrix(1,0,0,1,0,490.434814453125)" r="3.835818518928178" fill="#ffffff" opacity="0.7200000000000001" style="transform:matrix(1, 0, 0, 1, 0, 490.435);opacity:0.72;animation-play-state:paused" ></circle>
<circle cx="877.3778336711922" cy="0" transform="matrix(1,0,0,1,0,76.9984130859375)" r="3.4626122578060636" fill="#ffffff" opacity="0.7200000000000001" style="transform:matrix(1, 0, 0, 1, 0, 76.9984);opacity:0.72;animation-play-state:paused" ></circle>
<circle cx="96.40394550393182" cy="0" transform="matrix(1,0,0,1,0,1370.6932373046875)" r="2.4095123932583307" fill="#e7e7e7" opacity="0.63" style="transform:matrix(1, 0, 0, 1, 0, 1370.69);opacity:0.63;animation-play-state:paused" ></circle>
<circle cx="677.5822130025632" cy="0" transform="matrix(1,0,0,1,0,1120.644775390625)" r="1.5810795826867072" fill="#ffffff" opacity="0.36000000000000004" style="transform:matrix(1, 0, 0, 1, 0, 1120.64);opacity:0.36;animation-play-state:paused" ></circle>
<circle cx="1627.5746043306099" cy="0" transform="matrix(1,0,0,1,0,37.45654296875)" r="2.0667289900480372" fill="#e7e7e7" opacity="0.63" style="transform:matrix(1, 0, 0, 1, 0, 37.4565);opacity:0.63;animation-play-state:paused" ></circle>
<circle cx="1086.5377486399152" cy="0" transform="matrix(1,0,0,1,0,1129.412353515625)" r="3.352819581910426" fill="#dfdfdf" opacity="0.7200000000000001" style="transform:matrix(1, 0, 0, 1, 0, 1129.41);opacity:0.72;animation-play-state:paused" ></circle>
<circle cx="877.7602623864681" cy="0" transform="matrix(1,0,0,1,0,531.4033203125)" r="1.310099265976507" fill="#dfdfdf" opacity="0.36000000000000004" style="transform:matrix(1, 0, 0, 1, 0, 531.403);opacity:0.36;animation-play-state:paused" ></circle>
<circle cx="1902.432711526643" cy="0" transform="matrix(1,0,0,1,0,606.5128173828125)" r="1.72950414701744" fill="#dfdfdf" opacity="0.36000000000000004" style="transform:matrix(1, 0, 0, 1, 0, 606.513);opacity:0.36;animation-play-state:paused" ></circle>
<circle cx="906.0507145934814" cy="0" transform="matrix(1,0,0,1,0,1218.78466796875)" r="3.223502480208496" fill="#dfdfdf" opacity="0.7200000000000001" style="transform:matrix(1, 0, 0, 1, 0, 1218.78);opacity:0.72;animation-play-state:paused" ></circle>
<circle cx="178.14605079610914" cy="0" transform="matrix(1,0,0,1,0,1316.7239990234375)" r="3.48588020882897" fill="#dfdfdf" opacity="0.7200000000000001" style="transform:matrix(1, 0, 0, 1, 0, 1316.72);opacity:0.72;animation-play-state:paused" ></circle>
<circle cx="1535.3238429940452" cy="0" transform="matrix(1,0,0,1,0,1811.491943359375)" r="3.000052453825793" fill="#e7e7e7" opacity="0.7200000000000001" style="transform:matrix(1, 0, 0, 1, 0, 1811.49);opacity:0.72;animation-play-state:paused" ></circle>
<circle cx="854.0715440058306" cy="0" transform="matrix(1,0,0,1,0,1083.75244140625)" r="3.7676638734667542" fill="#e7e7e7" opacity="0.7200000000000001" style="transform:matrix(1, 0, 0, 1, 0, 1083.75);opacity:0.72;animation-play-state:paused" ></circle>
<circle cx="1015.6845592259715" cy="0" transform="matrix(1,0,0,1,0,618.2913818359375)" r="2.8352431291393523" fill="#dfdfdf" opacity="0.63" style="transform:matrix(1, 0, 0, 1, 0, 618.291);opacity:0.63;animation-play-state:paused" ></circle>
<circle cx="1822.2482457768258" cy="0" transform="matrix(1,0,0,1,0,266.206298828125)" r="3.7592214055484114" fill="#dfdfdf" opacity="0.7200000000000001" style="transform:matrix(1, 0, 0, 1, 0, 266.206);opacity:0.72;animation-play-state:paused" ></circle>
<circle cx="1467.9388686325974" cy="0" transform="matrix(1,0,0,1,0,1026.601318359375)" r="3.6038066821961974" fill="#dfdfdf" opacity="0.7200000000000001" style="transform:matrix(1, 0, 0, 1, 0, 1026.6);opacity:0.72;animation-play-state:paused" ></circle>
<circle cx="843.9675957083768" cy="0" transform="matrix(1,0,0,1,0,14.390380859375)" r="3.679466505493953" fill="#e7e7e7" opacity="0.7200000000000001" style="transform:matrix(1, 0, 0, 1, 0, 14.3904);opacity:0.72;animation-play-state:paused" ></circle>
<circle cx="294.3325331563085" cy="0" transform="matrix(1,0,0,1,0,1193.7208251953125)" r="2.475887495502066" fill="#e7e7e7" opacity="0.63" style="transform:matrix(1, 0, 0, 1, 0, 1193.72);opacity:0.63;animation-play-state:paused" ></circle>
<circle cx="1315.4517310727276" cy="0" transform="matrix(1,0,0,1,0,1169.592041015625)" r="1.2328427667374806" fill="#ffffff" opacity="0.36000000000000004" style="transform:matrix(1, 0, 0, 1, 0, 1169.59);opacity:0.36;animation-play-state:paused" ></circle>
<circle cx="135.8662184234636" cy="0" transform="matrix(1,0,0,1,0,419.63134765625)" r="2.4395742387354478" fill="#e7e7e7" opacity="0.63" style="transform:matrix(1, 0, 0, 1, 0, 419.631);opacity:0.63;animation-play-state:paused" ></circle>
<circle cx="697.2411045202217" cy="0" transform="matrix(1,0,0,1,0,871.98193359375)" r="1.7587568602512706" fill="#ffffff" opacity="0.36000000000000004" style="transform:matrix(1, 0, 0, 1, 0, 871.982);opacity:0.36;animation-play-state:paused" ></circle>
<circle cx="1228.1031713237276" cy="0" transform="matrix(1,0,0,1,0,131.5252685546875)" r="3.8537472063563416" fill="#e7e7e7" opacity="0.7200000000000001" style="transform:matrix(1, 0, 0, 1, 0, 131.525);opacity:0.72;animation-play-state:paused" ></circle>
<circle cx="104.03231231299898" cy="0" transform="matrix(1,0,0,1,0,307.55029296875)" r="3.581279081528303" fill="#e7e7e7" opacity="0.7200000000000001" style="transform:matrix(1, 0, 0, 1, 0, 307.55);opacity:0.72;animation-play-state:paused" ></circle>
<circle cx="1223.8726218439203" cy="0" transform="matrix(1,0,0,1,0,262.6212158203125)" r="1.939418958781571" fill="#e7e7e7" opacity="0.36000000000000004" style="transform:matrix(1, 0, 0, 1, 0, 262.621);opacity:0.36;animation-play-state:paused" ></circle>
<circle cx="1336.5517545783525" cy="0" transform="matrix(1,0,0,1,0,76.6571044921875)" r="1.956864511431481" fill="#dfdfdf" opacity="0.36000000000000004" style="transform:matrix(1, 0, 0, 1, 0, 76.6571);opacity:0.36;animation-play-state:paused" ></circle>
<circle cx="870.2045932295423" cy="0" transform="matrix(1,0,0,1,0,280.458740234375)" r="2.747444307960254" fill="#ffffff" opacity="0.63" style="transform:matrix(1, 0, 0, 1, 0, 280.459);opacity:0.63;animation-play-state:paused" ></circle>
<circle cx="421.2167707645601" cy="0" transform="matrix(1,0,0,1,0,1975.4111328125)" r="2.3672049075755464" fill="#ffffff" opacity="0.63" style="transform:matrix(1, 0, 0, 1, 0, 1975.41);opacity:0.63;animation-play-state:paused" ></circle>
<circle cx="1696.75977264263" cy="0" transform="matrix(1,0,0,1,0,1374.61767578125)" r="2.423565035929565" fill="#ffffff" opacity="0.63" style="transform:matrix(1, 0, 0, 1, 0, 1374.62);opacity:0.63;animation-play-state:paused" ></circle>
<circle cx="1577.016297807605" cy="0" transform="matrix(1,0,0,1,0,1726.1103515625)" r="3.931986754959729" fill="#dfdfdf" opacity="0.7200000000000001" style="transform:matrix(1, 0, 0, 1, 0, 1726.11);opacity:0.72;animation-play-state:paused" ></circle>
<circle cx="1733.5625464001043" cy="0" transform="matrix(1,0,0,1,0,1286.9998779296875)" r="1.025319548823228" fill="#e7e7e7" opacity="0.36000000000000004" style="transform:matrix(1, 0, 0, 1, 0, 1287);opacity:0.36;animation-play-state:paused" ></circle>
<circle cx="877.8175311965134" cy="0" transform="matrix(1,0,0,1,0,1530.9019775390625)" r="2.505394266933142" fill="#ffffff" opacity="0.63" style="transform:matrix(1, 0, 0, 1, 0, 1530.9);opacity:0.63;animation-play-state:paused" ></circle>
<circle cx="654.4636777286312" cy="0" transform="matrix(1,0,0,1,0,1657.642578125)" r="3.6630890708162065" fill="#dfdfdf" opacity="0.7200000000000001" style="transform:matrix(1, 0, 0, 1, 0, 1657.64);opacity:0.72;animation-play-state:paused" ></circle>
<circle cx="892.6713495144207" cy="0" transform="matrix(1,0,0,1,0,1010.4595947265625)" r="2.2199369860658686" fill="#ffffff" opacity="0.63" style="transform:matrix(1, 0, 0, 1, 0, 1010.46);opacity:0.63;animation-play-state:paused" ></circle>
<circle cx="668.9601425425135" cy="0" transform="matrix(1,0,0,1,0,1206.0625)" r="1.1607541161642545" fill="#dfdfdf" opacity="0.36000000000000004" style="transform:matrix(1, 0, 0, 1, 0, 1206.06);opacity:0.36;animation-play-state:paused" ></circle>
<circle cx="663.7778015577378" cy="0" transform="matrix(1,0,0,1,0,1914.7154541015625)" r="2.9019506255376015" fill="#e7e7e7" opacity="0.63" style="transform:matrix(1, 0, 0, 1, 0, 1914.72);opacity:0.63;animation-play-state:paused" ></circle>
<circle cx="305.3336066483338" cy="0" transform="matrix(1,0,0,1,0,1424.423583984375)" r="2.4282922574786907" fill="#ffffff" opacity="0.63" style="transform:matrix(1, 0, 0, 1, 0, 1424.42);opacity:0.63;animation-play-state:paused" ></circle>
<circle cx="354.44121102912834" cy="0" transform="matrix(1,0,0,1,0,622.7635498046875)" r="3.4961875093922163" fill="#dfdfdf" opacity="0.7200000000000001" style="transform:matrix(1, 0, 0, 1, 0, 622.764);opacity:0.72;animation-play-state:paused" ></circle>
<circle cx="476.8906756688609" cy="0" transform="matrix(1,0,0,1,0,645.15673828125)" r="2.2478968529493066" fill="#e7e7e7" opacity="0.63" style="transform:matrix(1, 0, 0, 1, 0, 645.157);opacity:0.63;animation-play-state:paused" ></circle>
<circle cx="314.82155713344" cy="0" transform="matrix(1,0,0,1,0,1127.9521484375)" r="3.689908901911255" fill="#e7e7e7" opacity="0.7200000000000001" style="transform:matrix(1, 0, 0, 1, 0, 1127.95);opacity:0.72;animation-play-state:paused" ></circle>
<circle cx="689.3032871456961" cy="0" transform="matrix(1,0,0,1,0,738.7840576171875)" r="1.4653796130940024" fill="#ffffff" opacity="0.36000000000000004" style="transform:matrix(1, 0, 0, 1, 0, 738.784);opacity:0.36;animation-play-state:paused" ></circle>
<circle cx="126.41214027867264" cy="0" transform="matrix(1,0,0,1,0,1722.19873046875)" r="2.0331447989364833" fill="#dfdfdf" opacity="0.63" style="transform:matrix(1, 0, 0, 1, 0, 1722.2);opacity:0.63;animation-play-state:paused" ></circle>
<circle cx="1555.977842198117" cy="0" transform="matrix(1,0,0,1,0,50.755126953125)" r="2.655107133553729" fill="#e7e7e7" opacity="0.63" style="transform:matrix(1, 0, 0, 1, 0, 50.7551);opacity:0.63;animation-play-state:paused" ></circle>
<circle cx="487.49035021996576" cy="0" transform="matrix(1,0,0,1,0,400.4920654296875)" r="3.4624756344843473" fill="#ffffff" opacity="0.7200000000000001" style="transform:matrix(1, 0, 0, 1, 0, 400.492);opacity:0.72;animation-play-state:paused" ></circle>
<circle cx="332.1373923510474" cy="0" transform="matrix(1,0,0,1,0,1489.01806640625)" r="1.1700850891428627" fill="#ffffff" opacity="0.36000000000000004" style="transform:matrix(1, 0, 0, 1, 0, 1489.02);opacity:0.36;animation-play-state:paused" ></circle>
<circle cx="1872.709345900047" cy="0" transform="matrix(1,0,0,1,0,1443.266845703125)" r="2.8365687778330266" fill="#dfdfdf" opacity="0.63" style="transform:matrix(1, 0, 0, 1, 0, 1443.27);opacity:0.63;animation-play-state:paused" ></circle>
<circle cx="81.01790777947528" cy="0" transform="matrix(1,0,0,1,0,1833.21240234375)" r="3.0084342871586003" fill="#ffffff" opacity="0.7200000000000001" style="transform:matrix(1, 0, 0, 1, 0, 1833.21);opacity:0.72;animation-play-state:paused" ></circle>
<circle cx="668.9778034412917" cy="0" transform="matrix(1,0,0,1,0,557.66845703125)" r="1.9385016791576808" fill="#e7e7e7" opacity="0.36000000000000004" style="transform:matrix(1, 0, 0, 1, 0, 557.668);opacity:0.36;animation-play-state:paused" ></circle>
<circle cx="139.0871668163085" cy="0" transform="matrix(1,0,0,1,0,1042.10498046875)" r="3.15209577006757" fill="#dfdfdf" opacity="0.7200000000000001" style="transform:matrix(1, 0, 0, 1, 0, 1042.1);opacity:0.72;animation-play-state:paused" ></circle>
<circle cx="1692.7909934195968" cy="0" transform="matrix(1,0,0,1,0,106.9483642578125)" r="3.2485965687097744" fill="#e7e7e7" opacity="0.7200000000000001" style="transform:matrix(1, 0, 0, 1, 0, 106.948);opacity:0.72;animation-play-state:paused" ></circle>
<circle cx="1813.4206420718938" cy="0" transform="matrix(1,0,0,1,0,607.01953125)" r="2.3731042023716657" fill="#ffffff" opacity="0.63" style="transform:matrix(1, 0, 0, 1, 0, 607.02);opacity:0.63;animation-play-state:paused" ></circle>
<circle cx="581.1325570489976" cy="0" transform="matrix(1,0,0,1,0,10.2017822265625)" r="2.2537786535050945" fill="#dfdfdf" opacity="0.63" style="transform:matrix(1, 0, 0, 1, 0, 10.2018);opacity:0.63;animation-play-state:paused" ></circle>
<circle cx="1182.4842313504055" cy="0" transform="matrix(1,0,0,1,0,1220.100830078125)" r="3.6790961954420713" fill="#e7e7e7" opacity="0.7200000000000001" style="transform:matrix(1, 0, 0, 1, 0, 1220.1);opacity:0.72;animation-play-state:paused" ></circle>
<circle cx="207.7541711436207" cy="0" transform="matrix(1,0,0,1,0,1272.523681640625)" r="2.7369779136458416" fill="#e7e7e7" opacity="0.63" style="transform:matrix(1, 0, 0, 1, 0, 1272.52);opacity:0.63;animation-play-state:paused" ></circle>
<circle cx="1142.3574960594697" cy="0" transform="matrix(1,0,0,1,0,1398.6820068359375)" r="1.1277587026976235" fill="#e7e7e7" opacity="0.36000000000000004" style="transform:matrix(1, 0, 0, 1, 0, 1398.68);opacity:0.36;animation-play-state:paused" ></circle>
<circle cx="1856.508484667605" cy="0" transform="matrix(1,0,0,1,0,83.735107421875)" r="2.6877355490526464" fill="#ffffff" opacity="0.63" style="transform:matrix(1, 0, 0, 1, 0, 83.7351);opacity:0.63;animation-play-state:paused" ></circle>
<circle cx="1722.7627968992326" cy="0" transform="matrix(1,0,0,1,0,333.8929443359375)" r="3.3395568656575705" fill="#ffffff" opacity="0.7200000000000001" style="transform:matrix(1, 0, 0, 1, 0, 333.893);opacity:0.72;animation-play-state:paused" ></circle>
<circle cx="105.69102814627968" cy="0" transform="matrix(1,0,0,1,0,608.9617919921875)" r="3.6360710099477282" fill="#dfdfdf" opacity="0.7200000000000001" style="transform:matrix(1, 0, 0, 1, 0, 608.962);opacity:0.72;animation-play-state:paused" ></circle>
<circle cx="1613.5155506986584" cy="0" transform="matrix(1,0,0,1,0,1821.8045654296875)" r="2.3390943962461597" fill="#dfdfdf" opacity="0.63" style="transform:matrix(1, 0, 0, 1, 0, 1821.8);opacity:0.63;animation-play-state:paused" ></circle>
<circle cx="264.78691384758406" cy="0" transform="matrix(1,0,0,1,0,1983.5174560546875)" r="2.0423717901271976" fill="#ffffff" opacity="0.63" style="transform:matrix(1, 0, 0, 1, 0, 1983.52);opacity:0.63;animation-play-state:paused" ></circle>
<circle cx="778.5293545216747" cy="0" transform="matrix(1,0,0,1,0,408.10009765625)" r="3.9778609699511764" fill="#e7e7e7" opacity="0.7200000000000001" style="transform:matrix(1, 0, 0, 1, 0, 408.1);opacity:0.72;animation-play-state:paused" ></circle>
<circle cx="1250.2303673189144" cy="0" transform="matrix(1,0,0,1,0,1068.364990234375)" r="1.4727824762093502" fill="#e7e7e7" opacity="0.36000000000000004" style="transform:matrix(1, 0, 0, 1, 0, 1068.36);opacity:0.36;animation-play-state:paused" ></circle>
<circle cx="506.0500915773166" cy="0" transform="matrix(1,0,0,1,0,48.75048828125)" r="2.6425750915897095" fill="#ffffff" opacity="0.63" style="transform:matrix(1, 0, 0, 1, 0, 48.7505);opacity:0.63;animation-play-state:paused" ></circle>
<circle cx="229.80203672753916" cy="0" transform="matrix(1,0,0,1,0,1731.3697509765625)" r="1.0157131105237174" fill="#dfdfdf" opacity="0.36000000000000004" style="transform:matrix(1, 0, 0, 1, 0, 1731.37);opacity:0.36;animation-play-state:paused" ></circle>
<circle cx="1824.364624460955" cy="0" transform="matrix(1,0,0,1,0,1950.9881591796875)" r="3.2160283847468154" fill="#ffffff" opacity="0.7200000000000001" style="transform:matrix(1, 0, 0, 1, 0, 1950.99);opacity:0.72;animation-play-state:paused" ></circle>
<circle cx="248.69713365371283" cy="0" transform="matrix(1,0,0,1,0,1612.772705078125)" r="1.4839169366088012" fill="#e7e7e7" opacity="0.36000000000000004" style="transform:matrix(1, 0, 0, 1, 0, 1612.77);opacity:0.36;animation-play-state:paused" ></circle>
<circle cx="1436.6632153151372" cy="0" transform="matrix(1,0,0,1,0,1179.4791259765625)" r="3.6919049989489445" fill="#dfdfdf" opacity="0.7200000000000001" style="transform:matrix(1, 0, 0, 1, 0, 1179.48);opacity:0.72;animation-play-state:paused" ></circle>
<circle cx="98.03052419003592" cy="0" transform="matrix(1,0,0,1,0,1084.638916015625)" r="3.3812984019086434" fill="#ffffff" opacity="0.7200000000000001" style="transform:matrix(1, 0, 0, 1, 0, 1084.64);opacity:0.72;animation-play-state:paused" ></circle>
<circle cx="607.6127474422092" cy="0" transform="matrix(1,0,0,1,0,39.33642578125)" r="2.7520545758410253" fill="#ffffff" opacity="0.63" style="transform:matrix(1, 0, 0, 1, 0, 39.3364);opacity:0.63;animation-play-state:paused" ></circle>
<circle cx="1545.974134276071" cy="0" transform="matrix(1,0,0,1,0,698.50048828125)" r="2.4121356933675493" fill="#e7e7e7" opacity="0.63" style="transform:matrix(1, 0, 0, 1, 0, 698.5);opacity:0.63;animation-play-state:paused" ></circle>
<circle cx="954.5959526511974" cy="0" transform="matrix(1,0,0,1,0,700.058349609375)" r="1.1969495323666757" fill="#dfdfdf" opacity="0.36000000000000004" style="transform:matrix(1, 0, 0, 1, 0, 700.058);opacity:0.36;animation-play-state:paused" ></circle>
<circle cx="646.55256077457" cy="0" transform="matrix(1,0,0,1,0,1821.6102294921875)" r="2.6759199357002723" fill="#e7e7e7" opacity="0.63" style="transform:matrix(1, 0, 0, 1, 0, 1821.61);opacity:0.63;animation-play-state:paused" ></circle>
<circle cx="1482.3927801307384" cy="0" transform="matrix(1,0,0,1,0,1164.8057861328125)" r="2.5503128856960635" fill="#ffffff" opacity="0.63" style="transform:matrix(1, 0, 0, 1, 0, 1164.81);opacity:0.63;animation-play-state:paused" ></circle>
<circle cx="1063.8240955944314" cy="0" transform="matrix(1,0,0,1,0,1126.549560546875)" r="2.198222726869208" fill="#ffffff" opacity="0.63" style="transform:matrix(1, 0, 0, 1, 0, 1126.55);opacity:0.63;animation-play-state:paused" ></circle>
<circle cx="1666.2539627746116" cy="0" transform="matrix(1,0,0,1,0,1507.752685546875)" r="1.7950008161532325" fill="#dfdfdf" opacity="0.36000000000000004" style="transform:matrix(1, 0, 0, 1, 0, 1507.75);opacity:0.36;animation-play-state:paused" ></circle>
<circle cx="1711.2826420488793" cy="0" transform="matrix(1,0,0,1,0,1681.015380859375)" r="1.7831459133505372" fill="#ffffff" opacity="0.36000000000000004" style="transform:matrix(1, 0, 0, 1, 0, 1681.02);opacity:0.36;animation-play-state:paused" ></circle>
<circle cx="152.8637027366635" cy="0" transform="matrix(1,0,0,1,0,441.7291259765625)" r="1.1271263425990612" fill="#e7e7e7" opacity="0.36000000000000004" style="transform:matrix(1, 0, 0, 1, 0, 441.729);opacity:0.36;animation-play-state:paused" ></circle>
<circle cx="1871.1579687651006" cy="0" transform="matrix(1,0,0,1,0,970.77587890625)" r="1.9369626273285565" fill="#dfdfdf" opacity="0.36000000000000004" style="transform:matrix(1, 0, 0, 1, 0, 970.776);opacity:0.36;animation-play-state:paused" ></circle>
<circle cx="4.3983395279664705" cy="0" transform="matrix(1,0,0,1,0,1022.2098388671875)" r="1.709274767591809" fill="#dfdfdf" opacity="0.36000000000000004" style="transform:matrix(1, 0, 0, 1, 0, 1022.21);opacity:0.36;animation-play-state:paused" ></circle>
<circle cx="1057.8800310792938" cy="0" transform="matrix(1,0,0,1,0,37.13134765625)" r="2.443606218079567" fill="#dfdfdf" opacity="0.63" style="transform:matrix(1, 0, 0, 1, 0, 37.1313);opacity:0.63;animation-play-state:paused" ></circle>
<circle cx="1635.8464237807884" cy="0" transform="matrix(1,0,0,1,0,896.9215087890625)" r="1.6713452584045263" fill="#e7e7e7" opacity="0.36000000000000004" style="transform:matrix(1, 0, 0, 1, 0, 896.922);opacity:0.36;animation-play-state:paused" ></circle>
<circle cx="1534.5986727739803" cy="0" transform="matrix(1,0,0,1,0,1433.9522705078125)" r="2.2232547465658863" fill="#e7e7e7" opacity="0.63" style="transform:matrix(1, 0, 0, 1, 0, 1433.95);opacity:0.63;animation-play-state:paused" ></circle>
<circle cx="1881.8161774899713" cy="0" transform="matrix(1,0,0,1,0,589.5108642578125)" r="2.07678278564485" fill="#e7e7e7" opacity="0.63" style="transform:matrix(1, 0, 0, 1, 0, 589.511);opacity:0.63;animation-play-state:paused" ></circle></g></svg>